<svg version="1.0" xmlns="http://www.w3.org/2000/svg"
 width="512.000000pt" height="512.000000pt" viewBox="0 0 512.000000 512.000000"
 preserveAspectRatio="xMidYMid meet">

<g transform="translate(0.000000,512.000000) scale(0.100000,-0.100000)"
fill="#ffffff" stroke="none">
<path d="M2300 4670 c-622 -110 -1104 -598 -1212 -1225 -26 -154 -22 -397 11
-547 92 -429 306 -886 686 -1458 205 -309 516 -719 733 -965 43 -49 44 -49 60
-29 9 12 62 75 118 140 406 479 805 1067 1033 1522 222 445 321 781 321 1097
0 725 -522 1343 -1238 1466 -149 25 -366 25 -512 -1z m395 -955 c181 -47 333
-199 380 -380 87 -335 -168 -665 -513 -665 -146 0 -275 53 -377 155 -167 167
-204 419 -92 629 62 119 197 225 328 260 72 19 201 20 274 1z"/>
</g>
</svg>