<?xml version="1.0" encoding="UTF-8"?>
<svg xmlns="http://www.w3.org/2000/svg" xmlns:xlink="http://www.w3.org/1999/xlink" width="19px" height="19px" viewBox="0 0 19 19" version="1.1">
<g id="surface1">
<path style=" stroke:none;fill-rule:nonzero;fill:rgb(102,102,102);fill-opacity:1;" d="M 9.734375 3.210938 C 9.570312 3.28125 9.5 3.4375 9.5 3.726562 L 9.5 3.96875 L 9.382812 3.984375 C 8.421875 4.121094 7.847656 4.289062 7.203125 4.621094 C 6.625 4.917969 6.207031 5.222656 5.714844 5.714844 C 4.699219 6.730469 4.21875 7.746094 3.984375 9.378906 L 3.96875 9.5 L 3.726562 9.5 C 3.429688 9.5 3.28125 9.570312 3.207031 9.75 C 3.160156 9.847656 3.15625 9.90625 3.191406 10.003906 C 3.261719 10.210938 3.378906 10.28125 3.695312 10.28125 L 3.96875 10.28125 L 3.988281 10.453125 C 4.105469 11.300781 4.273438 11.894531 4.582031 12.511719 C 5.230469 13.816406 6.382812 14.882812 7.699219 15.398438 C 8.167969 15.582031 8.671875 15.710938 9.136719 15.773438 L 9.492188 15.820312 L 9.507812 16.109375 C 9.519531 16.351562 9.535156 16.414062 9.609375 16.492188 C 9.730469 16.621094 9.921875 16.65625 10.074219 16.570312 C 10.234375 16.488281 10.28125 16.375 10.28125 16.070312 L 10.28125 15.820312 L 10.625 15.777344 C 12.546875 15.542969 14.253906 14.351562 15.15625 12.617188 C 15.480469 11.984375 15.722656 11.199219 15.789062 10.527344 L 15.816406 10.28125 L 16.070312 10.28125 C 16.375 10.28125 16.488281 10.234375 16.570312 10.074219 C 16.65625 9.921875 16.621094 9.730469 16.492188 9.609375 C 16.414062 9.535156 16.351562 9.519531 16.109375 9.507812 L 15.820312 9.492188 L 15.773438 9.136719 C 15.46875 6.777344 13.75 4.804688 11.449219 4.175781 C 11.183594 4.105469 10.472656 3.972656 10.308594 3.96875 C 10.289062 3.96875 10.28125 3.847656 10.28125 3.699219 C 10.28125 3.390625 10.226562 3.289062 10.035156 3.207031 C 9.886719 3.144531 9.882812 3.144531 9.734375 3.210938 Z M 9.539062 5.269531 C 9.636719 5.507812 9.984375 5.570312 10.171875 5.382812 C 10.230469 5.324219 10.28125 5.25 10.28125 5.21875 C 10.28125 5.148438 10.457031 5.160156 10.964844 5.277344 C 11.851562 5.476562 12.578125 5.890625 13.25 6.566406 C 13.980469 7.300781 14.390625 8.09375 14.574219 9.121094 C 14.628906 9.429688 14.628906 9.476562 14.585938 9.492188 C 14.457031 9.535156 14.289062 9.753906 14.289062 9.867188 C 14.289062 10.035156 14.375 10.1875 14.511719 10.242188 C 14.644531 10.296875 14.644531 10.3125 14.550781 10.789062 C 14.222656 12.472656 13.015625 13.851562 11.390625 14.398438 C 11.160156 14.476562 10.492188 14.621094 10.359375 14.621094 C 10.328125 14.621094 10.277344 14.574219 10.25 14.507812 C 10.117188 14.210938 9.652344 14.230469 9.535156 14.542969 C 9.5 14.625 9.484375 14.628906 9.285156 14.601562 C 8.988281 14.566406 8.445312 14.425781 8.152344 14.304688 C 6.710938 13.730469 5.617188 12.460938 5.277344 10.964844 C 5.160156 10.457031 5.148438 10.28125 5.21875 10.28125 C 5.25 10.28125 5.324219 10.230469 5.382812 10.171875 C 5.53125 10.027344 5.53125 9.816406 5.394531 9.652344 C 5.34375 9.589844 5.277344 9.539062 5.25 9.539062 C 5.160156 9.539062 5.15625 9.480469 5.21875 9.125 C 5.28125 8.726562 5.46875 8.128906 5.644531 7.785156 C 5.960938 7.15625 6.574219 6.425781 7.132812 6.035156 C 7.761719 5.589844 8.71875 5.230469 9.449219 5.160156 C 9.46875 5.15625 9.511719 5.210938 9.539062 5.269531 Z M 9.539062 5.269531 "/>
<path style=" stroke:none;fill-rule:nonzero;fill:rgb(102,102,102);fill-opacity:1;" d="M 9.667969 7.929688 C 8.859375 8.046875 8.222656 8.59375 7.992188 9.371094 C 7.914062 9.628906 7.90625 10.140625 7.980469 10.390625 C 8.316406 11.617188 9.671875 12.222656 10.804688 11.648438 C 11.097656 11.5 11.484375 11.117188 11.644531 10.8125 C 12.210938 9.738281 11.671875 8.40625 10.519531 8.023438 C 10.289062 7.949219 9.863281 7.902344 9.667969 7.929688 Z M 9.667969 7.929688 "/>
</g>
</svg>
